<svg xmlns="http://www.w3.org/2000/svg" viewBox="0 0 800 600" role="img" aria-label="Gavetas de caixa"><rect width="800" height="600" fill="#e6edf6"/><circle cx="650" cy="110" r="120" fill="#2b6cb0" opacity=".12"/><circle cx="130" cy="520" r="90" fill="#2b6cb0" opacity=".1"/><ellipse cx="400" cy="520" rx="230" ry="22" fill="#000" opacity=".12"/><rect x="300" y="200" width="200" height="140" rx="16" fill="#1e4c7b"/><rect x="316" y="216" width="168" height="100" rx="8" fill="#8aaed4"/><rect x="210" y="330" width="380" height="170" rx="22" fill="#2b6cb0"/><rect x="240" y="440" width="320" height="42" rx="10" fill="#1e4c7b"/><g fill="#ffffff" opacity=".7"><rect x="250" y="355" width="32" height="26" rx="5"/><rect x="295" y="355" width="32" height="26" rx="5"/><rect x="340" y="355" width="32" height="26" rx="5"/><rect x="385" y="355" width="32" height="26" rx="5"/><rect x="430" y="355" width="32" height="26" rx="5"/><rect x="475" y="355" width="32" height="26" rx="5"/><rect x="520" y="355" width="32" height="26" rx="5"/></g></svg>