<svg xmlns="http://www.w3.org/2000/svg" viewBox="0 0 800 600" role="img" aria-label="Painéis expositores com ganchos"><rect width="800" height="600" fill="#f0eef8"/><circle cx="650" cy="110" r="120" fill="#866fc7" opacity=".12"/><circle cx="130" cy="520" r="90" fill="#866fc7" opacity=".1"/><ellipse cx="400" cy="520" rx="230" ry="22" fill="#000" opacity=".12"/><rect x="215" y="150" width="24" height="360" fill="#5e4e8b"/><rect x="561" y="150" width="24" height="360" fill="#5e4e8b"/><rect x="215" y="250" width="370" height="16" fill="#5e4e8b"/><rect x="255" y="204" width="52" height="46" rx="6" fill="#866fc7"/><rect x="325" y="216" width="60" height="34" rx="6" fill="#bcb0e0"/><rect x="405" y="198" width="44" height="52" rx="6" fill="#866fc7"/><rect x="470" y="212" width="64" height="38" rx="6" fill="#bcb0e0"/><rect x="215" y="360" width="370" height="16" fill="#5e4e8b"/><rect x="255" y="314" width="52" height="46" rx="6" fill="#866fc7"/><rect x="325" y="326" width="60" height="34" rx="6" fill="#bcb0e0"/><rect x="405" y="308" width="44" height="52" rx="6" fill="#866fc7"/><rect x="470" y="322" width="64" height="38" rx="6" fill="#bcb0e0"/><rect x="215" y="470" width="370" height="16" fill="#5e4e8b"/><rect x="255" y="424" width="52" height="46" rx="6" fill="#866fc7"/><rect x="325" y="436" width="60" height="34" rx="6" fill="#bcb0e0"/><rect x="405" y="418" width="44" height="52" rx="6" fill="#866fc7"/><rect x="470" y="432" width="64" height="38" rx="6" fill="#bcb0e0"/></svg>